<svg xmlns="http://www.w3.org/2000/svg" viewBox="0 0 1280 1024"><defs><style>.cls-1{fill:#3e3531;}.cls-2,.cls-4,.cls-8{fill:none;}.cls-2,.cls-3{stroke:#fff;stroke-width:5px;}.cls-2,.cls-3,.cls-4,.cls-5,.cls-6,.cls-8{stroke-miterlimit:10;}.cls-3{fill:#fff;}.cls-4,.cls-5,.cls-6,.cls-8{stroke:#f7931e;stroke-width:2px;}.cls-5,.cls-6{fill:#f7931e;}.cls-6{font-size:72px;font-family:Stencil;}.cls-7{font-size:150px;}.cls-8{font-size:36px;font-family:Impact;}</style></defs><g id="fondo"><rect class="cls-1" width="1280" height="1024"/></g><g id="Logo"><path class="cls-2" d="M556.2,512h0Z"/><path class="cls-2" d="M587.88,478.6l126.72-1.2S556.2,475.9,587.88,478.6Z"/><path class="cls-2" d="M727.56,512s2.8-34.78-16-34.6l-123.72,1.2s-25.56-6.21-20.16,33.4Z"/><rect class="cls-2" x="599.76" y="446.56" width="5.04" height="19.08"/><path class="cls-3" d="M596,465.64h13a5.58,5.58,0,0,1,5.58,5.58v3.6H590.76v-4A5.22,5.22,0,0,1,596,465.64Z"/><path class="cls-2" d="M655.22,282.86s-27.3-41.1-84.89-8.34l71.72,96.34S701,334.25,655.22,282.86Z"/><path class="cls-2" d="M640,269.3a34,34,0,0,1,36.88-3.52c223.93,112.35,0,212.82,0,212.82"/><path class="cls-2" d="M669.22,304.75s26.38-14.95,7.66-39"/><polygon class="cls-4" points="309.09 638.31 275.83 638.31 280.26 659.64 302.44 659.64 309.09 638.31"/><polyline class="cls-4" points="319.49 649.79 301.5 659.64 309.09 638.31 322.89 638.31 426.92 639.53 431.23 660.86 451.15 660.86 456.84 639.53"/><line class="cls-4" x1="319.49" y1="649.79" x2="319.38" y2="639.13"/><path class="cls-4" d="M426.92,639.53h29.92V617.69c0-5.38,4.28-9.9,10-10.58,8.48-1,9.49-1.13,12.78-10.27,4.07-11.3,5.51-22.26-32.22-20.19,4.95-.4-38.56-.25-23.34,45.67"/><polyline class="cls-4" points="431.23 660.86 415.11 650.19 415.11 639.53"/><polygon class="cls-4" points="310.85 638.31 310.85 621.1 424.93 622.32 424.93 639.53 310.85 638.31"/><polygon class="cls-4" points="320.7 606.28 416.28 607.51 424.93 622.32 310.85 621.1 320.7 606.28"/><path class="cls-4" d="M275.83,637.14V614.31a6.44,6.44,0,0,0-5.65-6.23c-7.38-1.09-16.09-5.84-15.21-13.64,1.26-11.26,4.42-12.43,4.42-12.43s20.37-14.81,42.11,0,9.35,37.92,9.35,37.92"/><path class="cls-4" d="M479.24,581.8,468.47,561a20.89,20.89,0,0,0-10.3-9.59c-8-3.45-21.49-14.69-33.24-6.35-12,8.49-7.66,66.75-8.65,62.47"/><path class="cls-4" d="M259.39,582l12.67-22.39A25.94,25.94,0,0,1,284,548.88c12.7-5.76,36.07-13.73,39,4.09,3.45,21.19,3.26,24.26-3.12,53.32"/><path class="cls-4" d="M426.15,543.47c-25.92-24-58.26-1.65-58.26-1.65-18.44-20.42-53.52,0-53.52,0"/><rect class="cls-5" x="379.17" y="555.13" width="8.42" height="7.89" rx="3.94" transform="translate(766.76 1118.16) rotate(180)"/><rect class="cls-5" x="401.4" y="555.13" width="8.42" height="7.89" rx="3.94" transform="translate(811.21 1118.16) rotate(180)"/><rect class="cls-5" x="354.56" y="555.13" width="8.42" height="7.89" rx="3.94" transform="translate(717.55 1118.16) rotate(180)"/><rect class="cls-5" x="329.96" y="555.13" width="8.42" height="7.89" rx="3.94" transform="translate(668.33 1118.16) rotate(180)"/><rect class="cls-5" x="350.35" y="574.69" width="8.42" height="7.89" rx="3.94" transform="translate(709.13 1157.27) rotate(-180)"/><rect class="cls-5" x="334.17" y="574.69" width="8.42" height="7.89" rx="3.94" transform="translate(676.75 1157.27) rotate(-180)"/><rect class="cls-5" x="397.19" y="574.69" width="8.42" height="7.89" rx="3.94" transform="translate(802.79 1157.27) rotate(-180)"/><rect class="cls-5" x="383.38" y="574.69" width="8.42" height="7.89" rx="3.94" transform="translate(775.18 1157.27) rotate(-180)"/><text class="cls-6" transform="translate(472.06 659.37)">uebles <tspan class="cls-7" x="278.12" y="0">S</tspan><tspan x="362.13" y="0">anyo</tspan></text><text class="cls-8" transform="translate(449.76 736.61)">Trabajamos como para Dios</text></g></svg>